<svg class="logos-image" width="182" height="52" viewBox="0 0 182 52" fill="none" xmlns="http://www.w3.org/2000/svg">
<path d="M86.1166 31.3739V49.8232H92.111V30.1751C92.111 27.6885 91.5781 25.4906 90.5125 23.5813C89.4468 21.672 87.9815 20.1845 86.1166 19.1188C84.2961 18.0532 82.187 17.5203 79.7893 17.5203C77.3915 17.5203 75.238 18.0754 73.3287 19.1854C71.8905 19.9882 70.6916 21.0176 69.7321 22.2739V2.26807H63.7378V49.8232H69.7321V31.3739C69.7321 29.7754 70.0873 28.3546 70.7978 27.1113C71.5082 25.868 72.4851 24.8912 73.7283 24.1807C74.9716 23.4703 76.3925 23.1151 77.991 23.1151C80.3887 23.1151 82.3424 23.8921 83.8521 25.4462C85.3618 27.0003 86.1166 28.9762 86.1166 31.3739Z" fill="currentColor"/>
<path d="M102.624 48.7575C104.711 49.912 107.065 50.4892 109.684 50.4892C112.349 50.4892 114.68 49.912 116.678 48.7575C118.72 47.5587 120.319 45.9158 121.473 43.8288C122.628 41.7419 123.205 39.322 123.205 36.569V18.1864H117.211V36.3026C117.211 38.9224 116.545 40.9871 115.213 42.4968C113.881 43.962 112.038 44.6947 109.684 44.6947C108.13 44.6947 106.776 44.3617 105.622 43.6956C104.467 43.0296 103.579 42.0749 102.958 40.8317C102.38 39.544 102.092 38.0343 102.092 36.3026V18.1864H96.0973V36.569C96.0973 39.322 96.6746 41.7419 97.829 43.8288C98.9835 45.9158 100.582 47.5587 102.624 48.7575Z" fill="currentColor"/>
<path fill-rule="evenodd" clip-rule="evenodd" d="M142.562 50.4892C139.409 50.4892 136.567 49.7788 134.036 48.3579C131.506 46.8926 129.507 44.9167 128.042 42.4302C126.577 39.9436 125.844 37.1241 125.844 33.9715C125.844 30.8633 126.555 28.0659 127.976 25.5794C129.441 23.0929 131.395 21.1391 133.837 19.7183C136.323 18.253 139.098 17.5203 142.162 17.5203C145.093 17.5203 147.668 18.1864 149.888 19.5185C152.153 20.8505 153.907 22.6932 155.15 25.0466C156.438 27.3999 157.081 30.0641 157.081 33.039C157.081 33.483 157.059 33.9715 157.015 34.5043C156.97 34.9927 156.882 35.57 156.748 36.236H131.973C132.183 37.468 132.561 38.6003 133.104 39.6328C133.992 41.2757 135.258 42.5634 136.9 43.4958C138.543 44.3839 140.43 44.8279 142.562 44.8279C144.338 44.8279 145.959 44.5171 147.424 43.8954C148.934 43.2738 150.221 42.3414 151.287 41.0981L155.15 45.0277C153.64 46.8038 151.775 48.1581 149.555 49.0905C147.379 50.023 145.048 50.4892 142.562 50.4892ZM133.037 28.1103C132.54 29.0534 132.189 30.0968 131.985 31.2407H151.239C151.075 29.9313 150.736 28.7768 150.221 27.7773C149.466 26.2676 148.401 25.1132 147.024 24.3139C145.648 23.4703 143.983 23.0485 142.029 23.0485C139.986 23.0485 138.188 23.4925 136.634 24.3805C135.08 25.2686 133.881 26.5119 133.037 28.1103Z" fill="currentColor"/>
<path d="M160.953 47.8251C162.285 48.6687 163.728 49.3348 165.283 49.8232C166.881 50.2672 168.568 50.4892 170.344 50.4892C173.897 50.4892 176.716 49.6234 178.803 47.8917C180.934 46.16 182 43.8066 182 40.8317C182 38.878 181.578 37.3017 180.735 36.1028C179.935 34.9039 178.892 33.9493 177.604 33.2388C176.317 32.5284 174.962 31.9734 173.541 31.5737C172.121 31.1297 170.744 30.7079 169.412 30.3083C168.124 29.9086 167.081 29.4202 166.282 28.843C165.482 28.2658 165.083 27.4443 165.083 26.3786C165.083 25.313 165.527 24.4915 166.415 23.9143C167.347 23.2927 168.679 22.9818 170.411 22.9818C172.054 22.9818 173.519 23.2927 174.807 23.9143C176.139 24.5359 177.249 25.424 178.137 26.5785L182 22.7154C180.757 20.9837 179.158 19.6961 177.205 18.8524C175.295 17.9644 173.097 17.5203 170.611 17.5203C168.257 17.5203 166.237 17.8978 164.55 18.6526C162.907 19.4074 161.619 20.4953 160.687 21.9162C159.754 23.2927 159.288 24.9356 159.288 26.8449C159.288 28.7542 159.688 30.2861 160.487 31.4405C161.331 32.595 162.396 33.5052 163.684 34.1713C164.972 34.8373 166.326 35.3924 167.747 35.8364C169.212 36.236 170.589 36.6578 171.876 37.1019C173.164 37.5015 174.207 38.0343 175.007 38.7003C175.85 39.322 176.272 40.21 176.272 41.3645C176.272 42.519 175.762 43.4292 174.74 44.0953C173.719 44.7169 172.276 45.0277 170.411 45.0277C168.546 45.0277 166.859 44.6947 165.349 44.0286C163.839 43.3182 162.507 42.2525 161.353 40.8317L157.49 44.6947C158.467 45.8936 159.621 46.937 160.953 47.8251Z" fill="currentColor"/>
<path d="M176.389 7.56385V8.7442H174.968V12.3353H173.619V8.7442H172.198V7.56385H176.389Z" fill="currentColor"/>
<path d="M181.927 7.49231V12.3568H180.578V9.99609L179.59 11.1049H179.186L178.198 9.99609V12.3568H176.849V7.49231H177.325L179.388 9.56687L181.451 7.49231H181.927Z" fill="currentColor"/>
<path d="M6.25075 15.3275C8.11743 21.3127 14.4827 24.6515 20.4679 22.7848C26.4532 20.9181 40.6293 11.173 38.7626 5.1877C36.8959 -0.797565 19.6934 -0.756413 13.7081 1.11027C7.72284 2.97695 4.38407 9.3422 6.25075 15.3275Z" fill="currentColor"/>
<path d="M2.63478 48.147C6.14783 51.66 11.843 51.66 15.356 48.147C18.8691 44.6339 25.2294 32.5779 21.7169 29.0648C18.2039 25.5521 6.14783 31.9127 2.63478 35.4254C-0.878261 38.9385 -0.878261 44.6339 2.63478 48.147Z" fill="currentColor"/>
<path d="M36.2498 51.6009C42.3059 53.2235 48.5307 49.6298 50.1536 43.5737C51.7758 37.5176 51.1205 20.3278 45.0645 18.7049C39.0084 17.0824 29.8458 31.6414 28.2229 37.6975C26.6 43.7532 30.1938 49.978 36.2498 51.6009Z" fill="currentColor"/>
</svg>
