<svg width="245" height="61" viewBox="0 0 245 61" fill="none" xmlns="http://www.w3.org/2000/svg">
<path d="M45.8705 0.580566C47.3718 0.970086 48.7355 1.48925 49.961 2.14175C53.0017 3.74113 55.253 5.94276 56.7141 8.74659C58.1751 11.5503 58.906 14.7393 58.906 18.313C58.906 21.8867 58.1752 25.0563 56.7141 27.8205C55.253 30.5847 53.0117 32.7571 49.9908 34.3367C49.5062 34.5868 48.5958 34.8155 47.3901 35.0255L61.2753 60.3708H43.3256L33.7764 40.492V60.3708H17.7959V47.4044L55.9994 13.9409H35.0615L45.8705 0.580566Z" fill="#B4A7FF"/>
<path d="M45.8705 0.580566C47.3718 0.970086 48.7355 1.48925 49.961 2.14175C53.0017 3.74113 55.253 5.94276 56.7141 8.74659C58.1751 11.5503 58.906 14.7393 58.906 18.313C58.906 21.8867 58.1752 25.0563 56.7141 27.8205C55.253 30.5847 53.0117 32.7571 49.9908 34.3367C49.5062 34.5868 48.5958 34.8155 47.3901 35.0255L61.2753 60.3708H43.3256L33.7764 40.492V60.3708H17.7959V47.4044L55.9994 13.9409H35.0615L45.8705 0.580566Z" fill="url(#paint0_radial_2_122)"/>
<path d="M45.8705 0.580566C47.3718 0.970086 48.7355 1.48925 49.961 2.14175C53.0017 3.74113 55.253 5.94276 56.7141 8.74659C58.1751 11.5503 58.906 14.7393 58.906 18.313C58.906 21.8867 58.1752 25.0563 56.7141 27.8205C55.253 30.5847 53.0117 32.7571 49.9908 34.3367C49.5062 34.5868 48.5958 34.8155 47.3901 35.0255L61.2753 60.3708H43.3256L33.7764 40.492V60.3708H17.7959V47.4044L55.9994 13.9409H35.0615L45.8705 0.580566Z" fill="url(#paint1_radial_2_122)"/>
<path d="M45.8705 0.580566C47.3718 0.970086 48.7355 1.48925 49.961 2.14175C53.0017 3.74113 55.253 5.94276 56.7141 8.74659C58.1751 11.5503 58.906 14.7393 58.906 18.313C58.906 21.8867 58.1752 25.0563 56.7141 27.8205C55.253 30.5847 53.0117 32.7571 49.9908 34.3367C49.5062 34.5868 48.5958 34.8155 47.3901 35.0255L61.2753 60.3708H43.3256L33.7764 40.492V60.3708H17.7959V47.4044L55.9994 13.9409H35.0615L45.8705 0.580566Z" fill="url(#paint2_radial_2_122)"/>
<path d="M0 25.7876L14.0065 1.9772H39.2177L26.3743 17.8508H45.4016L1.16297 56.601L14.0065 25.7876H0Z" fill="#B4A7FF"/>
<path d="M0 25.7876L14.0065 1.9772H39.2177L26.3743 17.8508H45.4016L1.16297 56.601L14.0065 25.7876H0Z" fill="url(#paint3_radial_2_122)"/>
<path d="M0 25.7876L14.0065 1.9772H39.2177L26.3743 17.8508H45.4016L1.16297 56.601L14.0065 25.7876H0Z" fill="url(#paint4_radial_2_122)"/>
<path d="M0 25.7876L14.0065 1.9772H39.2177L26.3743 17.8508H45.4016L1.16297 56.601L14.0065 25.7876H0Z" fill="url(#paint5_radial_2_122)"/>
<path d="M244.365 18.6767V24.12H234.626V18.6767H244.365ZM230.439 10.3302H237.221V43.2852C237.221 44.6006 237.417 45.591 237.81 46.2563C238.203 46.9065 238.71 47.3526 239.33 47.5945C239.965 47.8213 240.653 47.9347 241.394 47.9347C241.938 47.9347 242.414 47.8969 242.823 47.8213C243.231 47.7457 243.548 47.6852 243.775 47.6398L245 53.242C244.607 53.3932 244.047 53.5444 243.322 53.6956C242.596 53.8619 241.689 53.9526 240.6 53.9677C238.816 53.998 237.152 53.6805 235.61 53.0152C234.068 52.3499 232.82 51.3217 231.868 49.9306C230.915 48.5395 230.439 46.7931 230.439 44.6914V10.3302Z" fill="white"/>
<path d="M225.599 7.06421V53.5141H218.817V7.06421H225.599Z" fill="white"/>
<path d="M198.84 54.2172C195.574 54.2172 192.724 53.4688 190.29 51.9718C187.855 50.4749 185.965 48.3807 184.62 45.6893C183.274 42.9979 182.601 39.8528 182.601 36.2542C182.601 32.6404 183.274 29.4802 184.62 26.7737C185.965 24.0671 187.855 21.9654 190.29 20.4685C192.724 18.9715 195.574 18.2231 198.84 18.2231C202.106 18.2231 204.957 18.9715 207.391 20.4685C209.825 21.9654 211.715 24.0671 213.061 26.7737C214.407 29.4802 215.08 32.6404 215.08 36.2542C215.08 39.8528 214.407 42.9979 213.061 45.6893C211.715 48.3807 209.825 50.4749 207.391 51.9718C204.957 53.4688 202.106 54.2172 198.84 54.2172ZM198.863 48.5244C200.98 48.5244 202.734 47.9649 204.125 46.846C205.516 45.7271 206.544 44.2378 207.21 42.3779C207.89 40.5181 208.23 38.4693 208.23 36.2315C208.23 34.0088 207.89 31.9675 207.21 30.1077C206.544 28.2328 205.516 26.7283 204.125 25.5943C202.734 24.4602 200.98 23.8932 198.863 23.8932C196.731 23.8932 194.962 24.4602 193.556 25.5943C192.165 26.7283 191.129 28.2328 190.449 30.1077C189.783 31.9675 189.451 34.0088 189.451 36.2315C189.451 38.4693 189.783 40.5181 190.449 42.3779C191.129 44.2378 192.165 45.7271 193.556 46.846C194.962 47.9649 196.731 48.5244 198.863 48.5244Z" fill="white"/>
<path d="M182.81 18.6767L170.177 53.5141H162.919L150.263 18.6767H157.544L166.367 45.4852H166.729L175.529 18.6767H182.81Z" fill="white"/>
<path d="M135.367 54.2172C131.935 54.2172 128.978 53.4839 126.499 52.0172C124.034 50.5354 122.129 48.4563 120.783 45.78C119.453 43.0886 118.787 39.936 118.787 36.3222C118.787 32.7538 119.453 29.6087 120.783 26.8871C122.129 24.1654 124.004 22.041 126.408 20.5138C128.827 18.9867 131.655 18.2231 134.891 18.2231C136.856 18.2231 138.761 18.5482 140.606 19.1983C142.451 19.8485 144.106 20.8691 145.573 22.2602C147.04 23.6513 148.197 25.4582 149.043 27.6809C149.89 29.8885 150.313 32.5724 150.313 35.7325V38.1367H122.62V33.0562H143.668C143.668 31.272 143.305 29.6919 142.579 28.316C141.854 26.9249 140.833 25.8286 139.517 25.0273C138.217 24.2259 136.69 23.8252 134.936 23.8252C133.031 23.8252 131.368 24.2939 129.946 25.2314C128.54 26.1537 127.451 27.3634 126.68 28.8603C125.924 30.3421 125.546 31.9524 125.546 33.6913V37.6604C125.546 39.9889 125.954 41.9697 126.771 43.6027C127.603 45.2357 128.759 46.4831 130.241 47.345C131.723 48.1917 133.454 48.6151 135.435 48.6151C136.72 48.6151 137.892 48.4337 138.95 48.0708C140.009 47.6928 140.924 47.1333 141.695 46.3924C142.466 45.6515 143.056 44.7367 143.464 43.6481L149.882 44.8048C149.368 46.6948 148.446 48.3505 147.115 49.7718C145.8 51.178 144.144 52.2743 142.148 53.0605C140.168 53.8317 137.907 54.2172 135.367 54.2172Z" fill="white"/>
<path d="M84 53.5141V7.06421H100.557C104.156 7.06421 107.142 7.68415 109.516 8.92402C111.905 10.1639 113.689 11.8801 114.868 14.0725C116.048 16.2499 116.637 18.7674 116.637 21.6252C116.637 24.4678 116.04 26.9702 114.846 29.1325C113.666 31.2796 111.882 32.9504 109.493 34.1449C107.119 35.3394 104.133 35.9366 100.534 35.9366H87.9918V29.9036H99.8991C102.167 29.9036 104.012 29.5785 105.433 28.9283C106.87 28.2782 107.92 27.3331 108.586 26.0933C109.251 24.8534 109.584 23.364 109.584 21.6252C109.584 19.8712 109.244 18.3516 108.563 17.0664C107.898 15.7811 106.847 14.7983 105.411 14.1179C103.989 13.4223 102.122 13.0746 99.8084 13.0746H91.0083V53.5141H84ZM106.93 32.5572L118.407 53.5141H110.423L99.1733 32.5572H106.93Z" fill="white"/>
<defs>
<radialGradient id="paint0_radial_2_122" cx="0" cy="0" r="1" gradientUnits="userSpaceOnUse" gradientTransform="translate(21.506 11.3208) rotate(102.234) scale(33.83 28.6835)">
<stop stop-color="#FFA7A7"/>
<stop offset="1" stop-color="#FFA7A7" stop-opacity="0"/>
</radialGradient>
<radialGradient id="paint1_radial_2_122" cx="0" cy="0" r="1" gradientUnits="userSpaceOnUse" gradientTransform="translate(28.0773 57.3198) rotate(-111.624) scale(50.2544 44.3083)">
<stop offset="0.3" stop-color="#3A17FF"/>
<stop offset="1" stop-color="#3A17FF" stop-opacity="0"/>
</radialGradient>
<radialGradient id="paint2_radial_2_122" cx="0" cy="0" r="1" gradientUnits="userSpaceOnUse" gradientTransform="translate(22.7008 29.2891) rotate(15.4122) scale(62.2304 51.7239)">
<stop offset="0.7" stop-color="#B4A7FF" stop-opacity="0"/>
<stop offset="0.95" stop-color="#C6BCFF"/>
</radialGradient>
<radialGradient id="paint3_radial_2_122" cx="0" cy="0" r="1" gradientUnits="userSpaceOnUse" gradientTransform="translate(21.506 11.3208) rotate(102.234) scale(33.83 28.6835)">
<stop stop-color="#FFA7A7"/>
<stop offset="1" stop-color="#FFA7A7" stop-opacity="0"/>
</radialGradient>
<radialGradient id="paint4_radial_2_122" cx="0" cy="0" r="1" gradientUnits="userSpaceOnUse" gradientTransform="translate(28.0773 57.3198) rotate(-111.624) scale(50.2544 44.3083)">
<stop offset="0.3" stop-color="#3A17FF"/>
<stop offset="1" stop-color="#3A17FF" stop-opacity="0"/>
</radialGradient>
<radialGradient id="paint5_radial_2_122" cx="0" cy="0" r="1" gradientUnits="userSpaceOnUse" gradientTransform="translate(22.7008 29.2891) rotate(15.4122) scale(62.2304 51.7239)">
<stop offset="0.7" stop-color="#B4A7FF" stop-opacity="0"/>
<stop offset="0.95" stop-color="#C6BCFF"/>
</radialGradient>
</defs>
</svg>
